<?xml version="1.0" encoding="iso-8859-1"?>
<!-- Generator: Adobe Illustrator 19.0.0, SVG Export Plug-In . SVG Version: 6.00 Build 0)  -->
<svg version="1.1" id="Capa_1" xmlns="http://www.w3.org/2000/svg" xmlns:xlink="http://www.w3.org/1999/xlink" x="0px" y="0px"
	 viewBox="0 0 512.007 512.007" style="enable-background:new 0 0 512.007 512.007;" xml:space="preserve">
<circle style="fill:#497FC1;" cx="256.003" cy="256.003" r="256.003"/>
<path style="fill:#2D5D92;" d="M171.6,170.256c0,14.451,3.638,28.051,10.039,39.943c-0.921,0.921-87.317,87.317-88.233,88.233
	l79.577,79.577c4.868,7.394,10.414,14.126,16.536,20.052c-19.069,4.081-32.696,14.873-32.696,27.546l86.063,86.063
	c4.344,0.22,8.716,0.331,13.114,0.331c125.446,0,229.805-90.234,251.743-209.335L315.944,110.866
	C300.291,95.059,278.991,85.857,256,85.856C209.387,85.856,171.6,123.643,171.6,170.256z"/>
<path style="fill:#A16125;" d="M256,425.607h99.177c0-16.178-22.202-29.292-49.589-29.292C278.202,396.315,256,409.429,256,425.607z
	"/>
<path style="fill:#DF871E;" d="M256,425.607h-99.177c0-16.178,22.202-29.292,49.588-29.292S256,409.429,256,425.607z"/>
<path style="fill:#2D2E30;" d="M418.594,298.979L284.789,165.174c-19.315,19.315-5.019,64.925,31.93,101.874
	S399.279,318.293,418.594,298.979z"/>
<g>
	<ellipse style="fill:#3E3E42;" cx="256.003" cy="300.886" rx="105.363" ry="125.255"/>
	<path style="fill:#3E3E42;" d="M93.407,298.432l133.805-133.805c19.315,19.315,5.019,64.925-31.93,101.874
		S112.721,317.746,93.407,298.432z"/>
	<circle style="fill:#3E3E42;" cx="256.003" cy="170.257" r="84.401"/>
</g>
<path style="fill:#2D2E30;" d="M329.887,211.055c6.692-12.094,10.513-25.997,10.513-40.798c0-46.613-37.787-84.4-84.4-84.4v339.742
	c58.192,0,105.366-56.079,105.366-125.256C361.366,265.383,349.315,233.776,329.887,211.055z"/>
<path style="fill:#FFFFFF;" d="M318.897,170.256c0-18.704-15.163-33.867-33.867-33.867c-12.322,0-23.103,6.581-29.03,16.419
	c-5.926-9.838-16.708-16.419-29.03-16.419c-18.704,0-33.867,15.163-33.867,33.867c0,14.127,8.653,26.229,20.945,31.309
	c-12.537,18.235-20.407,44.528-20.407,73.761c0,55.059,27.919,99.694,62.359,99.694s62.359-44.635,62.359-99.694
	c0-29.233-7.87-55.526-20.407-73.761C310.244,196.485,318.897,184.383,318.897,170.256z"/>
<path style="fill:#B5DFEC;" d="M318.36,275.326c0-29.232-7.87-55.526-20.407-73.761c12.293-5.08,20.945-17.182,20.945-31.309
	c0-18.704-15.163-33.867-33.867-33.867c-12.322,0-23.103,6.581-29.03,16.419v222.212C290.441,375.02,318.36,330.385,318.36,275.326z
	"/>
<polygon style="fill:#F6D433;" points="256,226.141 228.211,193.052 256,183.808 283.789,193.052 "/>
<polygon style="fill:#EDA637;" points="256,226.141 256,183.808 283.789,193.052 "/>
<circle style="fill:#3E3E42;" cx="228.213" cy="171.87" r="9.144"/>
<circle style="fill:#2D2E30;" cx="283.794" cy="171.87" r="9.144"/>
<g>
</g>
<g>
</g>
<g>
</g>
<g>
</g>
<g>
</g>
<g>
</g>
<g>
</g>
<g>
</g>
<g>
</g>
<g>
</g>
<g>
</g>
<g>
</g>
<g>
</g>
<g>
</g>
<g>
</g>
</svg>
